<svg width="345" height="80" viewBox="0 0 345 80" fill="none" xmlns="http://www.w3.org/2000/svg">
<rect x="199" y="9" width="137" height="63" rx="5" fill="#53FF37"/>
<path d="M216.031 50.6719C216.031 49.7969 216.344 49.0625 216.969 48.4688C217.562 47.8438 218.297 47.5312 219.172 47.5312H238.109C238.703 47.5 239.188 47.3594 239.562 47.1094C239.969 46.8594 240.266 46.5781 240.453 46.2656C240.641 45.9531 240.734 45.625 240.734 45.2812C240.734 44.9375 240.641 44.6094 240.453 44.2969C240.266 43.9844 239.969 43.7031 239.562 43.4531C239.188 43.2031 238.703 43.0625 238.109 43.0312H219.266C218.391 43.0312 217.656 42.7188 217.062 42.0938C216.438 41.5 216.125 40.7656 216.125 39.8906C216.125 39.0156 216.422 38.2812 217.016 37.6875C217.641 37.0625 218.391 36.75 219.266 36.75H237.828C237.859 36.75 237.891 36.75 237.922 36.75C238.516 36.7188 239 36.5938 239.375 36.375C239.781 36.125 240.078 35.8438 240.266 35.5312C240.453 35.2188 240.547 34.8906 240.547 34.5469C240.547 34.2344 240.453 33.9219 240.266 33.6094C240.078 33.2969 239.781 33.0312 239.375 32.8125C239 32.5625 238.516 32.4219 237.922 32.3906H219.078C218.203 32.3906 217.469 32.0781 216.875 31.4531C216.25 30.8906 215.938 30.1719 215.938 29.2969C215.938 28.4531 216.234 27.7344 216.828 27.1406C217.453 26.5469 218.203 26.25 219.078 26.25H237.641C239.828 26.2812 241.625 26.7656 243.031 27.7031C244.469 28.6094 245.484 29.6719 246.078 30.8906C246.703 32.1094 247.016 33.3281 247.016 34.5469C247.016 35.7656 246.703 36.9688 246.078 38.1562C245.797 38.7188 245.438 39.2344 245 39.7031C245.531 40.2656 245.969 40.8594 246.312 41.4844C246.906 42.7344 247.203 44 247.203 45.2812C247.203 46.5 246.891 47.7344 246.266 48.9844C245.641 50.2031 244.625 51.2969 243.219 52.2656C241.812 53.2031 240.016 53.7031 237.828 53.7656H237.547C237.359 53.7969 237.172 53.8125 236.984 53.8125H219.172C218.297 53.8125 217.547 53.5156 216.922 52.9219C216.328 52.2969 216.031 51.5469 216.031 50.6719ZM276.406 26.25C278 26.2812 279.422 26.7812 280.672 27.75C281.922 28.7188 282.922 29.875 283.672 31.2188C284.453 32.5625 285.031 33.9844 285.406 35.4844C285.781 36.9844 285.969 38.5156 285.969 40.0781C285.969 42.1406 285.641 44.1719 284.984 46.1719C284.359 48.1406 283.312 49.8906 281.844 51.4219C280.406 52.9531 278.594 53.7812 276.406 53.9062H261.547C259.359 53.8125 257.531 53 256.062 51.4688C254.594 49.9375 253.547 48.1719 252.922 46.1719C252.328 44.1719 252.031 42.1406 252.031 40.0781C252.031 38.0156 252.344 36 252.969 34.0312C253.594 32.0312 254.625 30.2656 256.062 28.7344C257.531 27.1719 259.359 26.3438 261.547 26.25H262.438H275.516H276.406ZM274.812 47.625C276 47.5625 276.984 47.125 277.766 46.3125C278.578 45.4688 279.156 44.5 279.5 43.4062C279.844 42.3125 280.016 41.2031 280.016 40.0781C280.016 38.9531 279.828 37.8594 279.453 36.7969C279.109 35.7031 278.547 34.7344 277.766 33.8906C276.984 33.0469 276 32.5938 274.812 32.5312H263C261.812 32.5938 260.828 33.0469 260.047 33.8906C259.266 34.7344 258.688 35.7031 258.312 36.7969C257.969 37.8594 257.797 38.9531 257.797 40.0781C257.797 41.2031 257.969 42.3125 258.312 43.4062C258.656 44.5 259.219 45.4688 260 46.3125C260.812 47.125 261.812 47.5625 263 47.625H274.812ZM291.031 50.6719C291.031 49.7969 291.344 49.0625 291.969 48.4688C292.562 47.8438 293.297 47.5312 294.172 47.5312H313.109C313.703 47.5 314.188 47.3594 314.562 47.1094C314.969 46.8594 315.266 46.5781 315.453 46.2656C315.641 45.9531 315.734 45.625 315.734 45.2812C315.734 44.9375 315.641 44.6094 315.453 44.2969C315.266 43.9844 314.969 43.7031 314.562 43.4531C314.188 43.2031 313.703 43.0625 313.109 43.0312H294.266C293.391 43.0312 292.656 42.7188 292.062 42.0938C291.438 41.5 291.125 40.7656 291.125 39.8906C291.125 39.0156 291.422 38.2812 292.016 37.6875C292.641 37.0625 293.391 36.75 294.266 36.75H312.828C312.859 36.75 312.891 36.75 312.922 36.75C313.516 36.7188 314 36.5938 314.375 36.375C314.781 36.125 315.078 35.8438 315.266 35.5312C315.453 35.2188 315.547 34.8906 315.547 34.5469C315.547 34.2344 315.453 33.9219 315.266 33.6094C315.078 33.2969 314.781 33.0312 314.375 32.8125C314 32.5625 313.516 32.4219 312.922 32.3906H294.078C293.203 32.3906 292.469 32.0781 291.875 31.4531C291.25 30.8906 290.938 30.1719 290.938 29.2969C290.938 28.4531 291.234 27.7344 291.828 27.1406C292.453 26.5469 293.203 26.25 294.078 26.25H312.641C314.828 26.2812 316.625 26.7656 318.031 27.7031C319.469 28.6094 320.484 29.6719 321.078 30.8906C321.703 32.1094 322.016 33.3281 322.016 34.5469C322.016 35.7656 321.703 36.9688 321.078 38.1562C320.797 38.7188 320.438 39.2344 320 39.7031C320.531 40.2656 320.969 40.8594 321.312 41.4844C321.906 42.7344 322.203 44 322.203 45.2812C322.203 46.5 321.891 47.7344 321.266 48.9844C320.641 50.2031 319.625 51.2969 318.219 52.2656C316.812 53.2031 315.016 53.7031 312.828 53.7656H312.547C312.359 53.7969 312.172 53.8125 311.984 53.8125H294.172C293.297 53.8125 292.547 53.5156 291.922 52.9219C291.328 52.2969 291.031 51.5469 291.031 50.6719Z" fill="black"/>
<path d="M35.0234 29.3906C35.0234 30.2656 34.7109 31 34.0859 31.5938C33.4922 32.2188 32.7578 32.5312 31.8828 32.5312H13.1328C12.5391 32.5625 12.0391 32.7031 11.6328 32.9531C11.2578 33.1719 10.9766 33.4375 10.7891 33.75C10.6016 34.0312 10.5078 34.3281 10.5078 34.6406C10.5078 34.9531 10.6016 35.2656 10.7891 35.5781C10.9766 35.8594 11.2578 36.125 11.6328 36.375C12.0391 36.5938 12.5391 36.7188 13.1328 36.75H26.4453C28.6328 36.8125 30.4297 37.3281 31.8359 38.2969C33.2734 39.2344 34.2891 40.3281 34.8828 41.5781C35.5078 42.7969 35.8203 44.0469 35.8203 45.3281C35.8203 46.5781 35.5078 47.8281 34.8828 49.0781C34.2578 50.2969 33.2422 51.3906 31.8359 52.3594C30.4297 53.2969 28.6328 53.7656 26.4453 53.7656H26.1641C25.9766 53.7969 25.7891 53.8125 25.6016 53.8125H7.88281C7.00781 53.8125 6.25781 53.5156 5.63281 52.9219C5.03906 52.2969 4.74219 51.5469 4.74219 50.6719C4.74219 49.7969 5.05469 49.0625 5.67969 48.4688C6.27344 47.8438 7.00781 47.5312 7.88281 47.5312H26.7266C27.3203 47.5625 27.8047 47.4531 28.1797 47.2031C28.5859 46.9531 28.8828 46.6719 29.0703 46.3594C29.2578 46.0156 29.3516 45.6719 29.3516 45.3281C29.3516 45.1094 29.2578 44.8125 29.0703 44.4375C28.8828 44.0312 28.5859 43.7031 28.1797 43.4531C27.8047 43.2031 27.3203 43.0625 26.7266 43.0312H13.4141C11.2266 42.9688 9.41406 42.4688 7.97656 41.5312C6.57031 40.5938 5.55469 39.5312 4.92969 38.3438C4.33594 37.125 4.03906 35.8906 4.03906 34.6406C4.03906 33.4219 4.35156 32.2188 4.97656 31.0312C5.60156 29.8125 6.61719 28.7344 8.02344 27.7969C9.42969 26.8594 11.2266 26.3594 13.4141 26.2969H13.6953C13.8828 26.2656 14.0703 26.25 14.2578 26.25H31.8828C32.7578 26.25 33.4922 26.5625 34.0859 27.1875C34.7109 27.7812 35.0234 28.5156 35.0234 29.3906ZM67.2734 26.25C68.8672 26.2812 70.2891 26.7812 71.5391 27.75C72.7891 28.7188 73.7891 29.875 74.5391 31.2188C75.3203 32.5625 75.8984 33.9844 76.2734 35.4844C76.6484 36.9844 76.8359 38.5156 76.8359 40.0781C76.8359 42.1406 76.5078 44.1719 75.8516 46.1719C75.2266 48.1406 74.1797 49.8906 72.7109 51.4219C71.2734 52.9531 69.4609 53.7812 67.2734 53.9062H61.8359V57.0469C61.6484 58.9219 60.6172 59.9375 58.7422 60.0938C57.8672 60.0938 57.1016 59.7969 56.4453 59.2031C55.8203 58.6406 55.5078 57.9219 55.5078 57.0469V53.9062H49.9766C47.7891 53.8125 45.9609 53 44.4922 51.4688C43.0234 49.9375 41.9766 48.1719 41.3516 46.1719C40.7578 44.1719 40.4609 42.1406 40.4609 40.0781C40.4609 38.0156 40.7734 36 41.3984 34.0312C42.0234 32.0312 43.0547 30.2656 44.4922 28.7344C45.9609 27.1719 47.7891 26.3438 49.9766 26.25H67.2734ZM65.6797 47.625C66.8672 47.5625 67.8516 47.125 68.6328 46.3125C69.4453 45.4688 70.0234 44.5 70.3672 43.4062C70.7109 42.3125 70.8828 41.2031 70.8828 40.0781C70.8828 38.9531 70.6953 37.8594 70.3203 36.7969C69.9766 35.7031 69.4141 34.7344 68.6328 33.8906C67.8516 33.0469 66.8672 32.5938 65.6797 32.5312H51.4297C50.2422 32.5938 49.2578 33.0469 48.4766 33.8906C47.6953 34.7344 47.1172 35.7031 46.7422 36.7969C46.3984 37.8594 46.2266 38.9531 46.2266 40.0781C46.2266 41.2031 46.3984 42.3125 46.7422 43.4062C47.0859 44.5 47.6484 45.4688 48.4297 46.3125C49.2422 47.125 50.2422 47.5625 51.4297 47.625H55.5078V45.3281C55.5391 44.4531 55.8672 43.7344 56.4922 43.1719C57.1172 42.5781 57.8672 42.2812 58.7422 42.2812C59.5859 42.3125 60.3047 42.625 60.8984 43.2188C61.4922 43.7812 61.8047 44.4844 61.8359 45.3281V47.625H65.6797ZM97.0391 54.9844C95.4141 54.9844 93.8047 54.7969 92.2109 54.4219C90.6484 54.0469 89.1484 53.5 87.7109 52.7812C86.2734 52.0312 85.0078 51.0469 83.9141 49.8281C82.8203 48.6094 82.2266 47.1562 82.1328 45.4688V43.5V28.5469C82.1328 27.6719 82.4453 26.9531 83.0703 26.3906C83.7266 25.7969 84.4922 25.5 85.3672 25.5C87.2422 25.6562 88.2578 26.6719 88.4141 28.5469V44.0156C88.4766 44.9844 88.8359 45.7969 89.4922 46.4531C90.1797 47.0781 90.9297 47.5781 91.7422 47.9531C92.5859 48.3281 93.4453 48.6094 94.3203 48.7969C95.2266 48.9844 96.1328 49.0781 97.0391 49.0781C97.9453 49.0781 98.8359 48.9844 99.7109 48.7969C100.617 48.6094 101.477 48.3281 102.289 47.9531C103.133 47.5781 103.883 47.0781 104.539 46.4531C105.227 45.7969 105.602 44.9844 105.664 44.0156V28.5469C105.664 27.6719 105.977 26.9531 106.602 26.3906C107.258 25.7969 108.023 25.5 108.898 25.5C110.773 25.6562 111.805 26.6719 111.992 28.5469V43.5V45.4688C111.898 47.1562 111.289 48.6094 110.164 49.8281C109.07 51.0469 107.805 52.0312 106.367 52.7812C104.93 53.5 103.414 54.0469 101.82 54.4219C100.258 54.7969 98.6641 54.9844 97.0391 54.9844ZM128.773 46.6406C128.773 45.7656 129.07 45.0312 129.664 44.4375C130.289 43.8125 131.039 43.5 131.914 43.5H139.086L137.867 40.0312C137.367 38.75 136.867 37.5469 136.367 36.4219C135.898 35.2656 135.352 34.2188 134.727 33.2812C134.164 32.3438 133.523 31.8438 132.805 31.7812C132.055 31.8438 131.383 32.3438 130.789 33.2812C130.195 34.2188 129.648 35.2656 129.148 36.4219C128.68 37.5469 128.195 38.75 127.695 40.0312L123.242 52.2188C122.93 52.875 122.523 53.4219 122.023 53.8594C121.555 54.2656 120.836 54.4688 119.867 54.4688C118.961 54.4688 118.211 54.1562 117.617 53.5312C117.055 52.9062 116.805 52.1562 116.867 51.2812C116.898 50.875 116.992 50.5 117.148 50.1562L122.305 36.8438C123.742 33.3438 125.18 30.5156 126.617 28.3594C128.023 26.2344 130.086 25.1562 132.805 25.125C135.492 25.1562 137.539 26.2344 138.945 28.3594C140.383 30.4531 141.82 33.2812 143.258 36.8438L148.414 50.1562C148.57 50.5 148.664 50.875 148.695 51.2812C148.758 52.1562 148.492 52.9062 147.898 53.5312C147.336 54.1562 146.602 54.4688 145.695 54.4688C144.664 54.4688 143.898 54.2656 143.398 53.8594C142.93 53.4219 142.539 52.875 142.227 52.2188L141.336 49.7812H131.914C131.039 49.7812 130.305 49.4688 129.711 48.8438C129.086 48.25 128.773 47.5156 128.773 46.6406ZM173.727 26.25C175.914 26.375 177.711 27.2188 179.117 28.7812C180.523 30.3125 181.539 32.0625 182.164 34.0312C182.789 36 183.102 38.0156 183.102 40.0781C183.102 42.1406 182.789 44.1562 182.164 46.125C181.57 48.0938 180.555 49.8594 179.117 51.4219C177.711 52.9531 175.914 53.7812 173.727 53.9062H156.477C155.633 53.875 154.914 53.5781 154.32 53.0156C153.758 52.4219 153.461 51.7031 153.43 50.8594V39.2344C153.461 38.3594 153.789 37.6406 154.414 37.0781C155.039 36.4844 155.789 36.1875 156.664 36.1875C157.508 36.2188 158.227 36.5312 158.82 37.125C159.414 37.6875 159.727 38.3906 159.758 39.2344V46.3594C159.758 47.2031 160.195 47.625 161.07 47.625H172.133C173.32 47.5625 174.305 47.1094 175.086 46.2656C175.867 45.4219 176.43 44.4688 176.773 43.4062C177.148 42.3125 177.336 41.2031 177.336 40.0781C177.336 38.9531 177.148 37.8594 176.773 36.7969C176.43 35.7031 175.867 34.7344 175.086 33.8906C174.305 33.0469 173.32 32.5938 172.133 32.5312H156.477C154.602 32.375 153.586 31.3594 153.43 29.4844C153.43 28.6094 153.711 27.8594 154.273 27.2344C154.867 26.6094 155.602 26.2812 156.477 26.25H173.727Z" fill="white"/>
</svg>
