<svg id="testSVG" viewBox="0 0 300 300" xmlns="http://www.w3.org/2000/svg" style="background: rgb(255, 255, 255); max-width: inherit; max-height: inherit;" data-reuse="400b0aed85add2121c5fe1bbc7ded490"><svg width="300" height="300"><defs><clipPath id="clip-path-dot-color"><path d="M 5 85v 10h 5a 5 5, 0, 0, 0, 0 -10" transform="rotate(-90,10,90)"/><path d="M 5 95v 10h 10v -5a 5 5, 0, 0, 0, -5 -5" transform="rotate(180,10,100)"/><path d="M 5 115v 10h 5a 5 5, 0, 0, 0, 0 -10" transform="rotate(-90,10,120)"/><rect x="5" y="125" width="10" height="10" transform="rotate(0,10,130)"/><path d="M 5 135v 10h 5a 5 5, 0, 0, 0, 0 -10" transform="rotate(90,10,140)"/><path d="M 5 175v 10h 10v -5a 5 5, 0, 0, 0, -5 -5" transform="rotate(-90,10,180)"/><path d="M 5 185v 10h 10v -5a 5 5, 0, 0, 0, -5 -5" transform="rotate(180,10,190)"/><path d="M 15 95v 10h 10v -5a 5 5, 0, 0, 0, -5 -5" transform="rotate(0,20,100)"/><path d="M 15 105v 10h 10v -5a 5 5, 0, 0, 0, -5 -5" transform="rotate(180,20,110)"/><path d="M 15 165v 10h 10v -5a 5 5, 0, 0, 0, -5 -5" transform="rotate(-90,20,170)"/><rect x="15" y="175" width="10" height="10" transform="rotate(0,20,180)"/><rect x="15" y="185" width="10" height="10" transform="rotate(0,20,190)"/><path d="M 15 195v 10h 10v -5a 5 5, 0, 0, 0, -5 -5" transform="rotate(180,20,200)"/><path d="M 25 85v 10h 5a 5 5, 0, 0, 0, 0 -10" transform="rotate(180,30,90)"/><rect x="25" y="105" width="10" height="10" transform="rotate(0,30,110)"/><circle cx="30" cy="130" r="5" transform="rotate(0,30,130)"/><rect x="25" y="165" width="10" height="10" transform="rotate(0,30,170)"/><path d="M 25 175v 10h 10v -5a 5 5, 0, 0, 0, -5 -5" transform="rotate(90,30,180)"/><path d="M 25 195v 10h 10v -5a 5 5, 0, 0, 0, -5 -5" transform="rotate(0,30,200)"/><path d="M 25 205v 10h 5a 5 5, 0, 0, 0, 0 -10" transform="rotate(90,30,210)"/><path d="M 35 85v 10h 5a 5 5, 0, 0, 0, 0 -10" transform="rotate(0,40,90)"/><rect x="35" y="105" width="10" height="10" transform="rotate(0,40,110)"/><circle cx="40" cy="140" r="5" transform="rotate(0,40,140)"/><path d="M 35 155v 10h 5a 5 5, 0, 0, 0, 0 -10" transform="rotate(-90,40,160)"/><rect x="35" y="165" width="10" height="10" transform="rotate(0,40,170)"/><circle cx="40" cy="190" r="5" transform="rotate(0,40,190)"/><path d="M 45 95v 10h 10v -5a 5 5, 0, 0, 0, -5 -5" transform="rotate(-90,50,100)"/><rect x="45" y="105" width="10" height="10" transform="rotate(0,50,110)"/><rect x="45" y="165" width="10" height="10" transform="rotate(0,50,170)"/><circle cx="50" cy="210" r="5" transform="rotate(0,50,210)"/><path d="M 55 85v 10h 10v -5a 5 5, 0, 0, 0, -5 -5" transform="rotate(-90,60,90)"/><rect x="55" y="95" width="10" height="10" transform="rotate(0,60,100)"/><rect x="55" y="105" width="10" height="10" transform="rotate(0,60,110)"/><circle cx="60" cy="140" r="5" transform="rotate(0,60,140)"/><path d="M 55 155v 10h 5a 5 5, 0, 0, 0, 0 -10" transform="rotate(-90,60,160)"/><rect x="55" y="165" width="10" height="10" transform="rotate(0,60,170)"/><circle cx="60" cy="200" r="5" transform="rotate(0,60,200)"/><rect x="65" y="85" width="10" height="10" transform="rotate(0,70,90)"/><rect x="65" y="105" width="10" height="10" transform="rotate(0,70,110)"/><path d="M 65 125v 10h 5a 5 5, 0, 0, 0, 0 -10" transform="rotate(180,70,130)"/><path d="M 65 145v 10h 5a 5 5, 0, 0, 0, 0 -10" transform="rotate(180,70,150)"/><path d="M 65 165v 10h 5a 5 5, 0, 0, 0, 0 -10" transform="rotate(0,70,170)"/><path d="M 65 185v 10h 5a 5 5, 0, 0, 0, 0 -10" transform="rotate(180,70,190)"/><path d="M 65 205v 10h 5a 5 5, 0, 0, 0, 0 -10" transform="rotate(180,70,210)"/><rect x="75" y="85" width="10" height="10" transform="rotate(0,80,90)"/><rect x="75" y="105" width="10" height="10" transform="rotate(0,80,110)"/><rect x="75" y="125" width="10" height="10" transform="rotate(0,80,130)"/><rect x="75" y="145" width="10" height="10" transform="rotate(0,80,150)"/><path d="M 75 175v 10h 10v -5a 5 5, 0, 0, 0, -5 -5" transform="rotate(-90,80,180)"/><rect x="75" y="185" width="10" height="10" transform="rotate(0,80,190)"/><path d="M 75 205v 10h 5a 5 5, 0, 0, 0, 0 -10" transform="rotate(0,80,210)"/><path d="M 85 15v 10h 5a 5 5, 0, 0, 0, 0 -10" transform="rotate(180,90,20)"/><circle cx="90" cy="40" r="5" transform="rotate(0,90,40)"/><path d="M 85 55v 10h 10v -5a 5 5, 0, 0, 0, -5 -5" transform="rotate(-90,90,60)"/><rect x="85" y="65" width="10" height="10" transform="rotate(0,90,70)"/><rect x="85" y="75" width="10" height="10" transform="rotate(0,90,80)"/><rect x="85" y="85" width="10" height="10" transform="rotate(0,90,90)"/><rect x="85" y="95" width="10" height="10" transform="rotate(0,90,100)"/><rect x="85" y="105" width="10" height="10" transform="rotate(0,90,110)"/><rect x="85" y="115" width="10" height="10" transform="rotate(0,90,120)"/><rect x="85" y="125" width="10" height="10" transform="rotate(0,90,130)"/><rect x="85" y="135" width="10" height="10" transform="rotate(0,90,140)"/><rect x="85" y="145" width="10" height="10" transform="rotate(0,90,150)"/><rect x="85" y="175" width="10" height="10" transform="rotate(0,90,180)"/><rect x="85" y="185" width="10" height="10" transform="rotate(0,90,190)"/><path d="M 85 215v 10h 5a 5 5, 0, 0, 0, 0 -10" transform="rotate(-90,90,220)"/><rect x="85" y="225" width="10" height="10" transform="rotate(0,90,230)"/><path d="M 85 235v 10h 10v -5a 5 5, 0, 0, 0, -5 -5" transform="rotate(180,90,240)"/><path d="M 85 255v 10h 5a 5 5, 0, 0, 0, 0 -10" transform="rotate(-90,90,260)"/><path d="M 85 265v 10h 10v -5a 5 5, 0, 0, 0, -5 -5" transform="rotate(180,90,270)"/><path d="M 85 285v 10h 5a 5 5, 0, 0, 0, 0 -10" transform="rotate(180,90,290)"/><path d="M 95 5v 10h 5a 5 5, 0, 0, 0, 0 -10" transform="rotate(-90,100,10)"/><path d="M 95 15v 10h 10v -5a 5 5, 0, 0, 0, -5 -5" transform="rotate(90,100,20)"/><path d="M 95 45v 10h 5a 5 5, 0, 0, 0, 0 -10" transform="rotate(-90,100,50)"/><rect x="95" y="55" width="10" height="10" transform="rotate(0,100,60)"/><rect x="95" y="105" width="10" height="10" transform="rotate(0,100,110)"/><path d="M 95 135v 10h 10v -5a 5 5, 0, 0, 0, -5 -5" transform="rotate(0,100,140)"/><rect x="95" y="145" width="10" height="10" transform="rotate(0,100,150)"/><path d="M 95 155v 10h 5a 5 5, 0, 0, 0, 0 -10" transform="rotate(90,100,160)"/><path d="M 95 175v 10h 10v -5a 5 5, 0, 0, 0, -5 -5" transform="rotate(0,100,180)"/><rect x="95" y="185" width="10" height="10" transform="rotate(0,100,190)"/><path d="M 95 195v 10h 10v -5a 5 5, 0, 0, 0, -5 -5" transform="rotate(180,100,200)"/><rect x="95" y="225" width="10" height="10" transform="rotate(0,100,230)"/><rect x="95" y="235" width="10" height="10" transform="rotate(0,100,240)"/><path d="M 95 265v 10h 5a 5 5, 0, 0, 0, 0 -10" transform="rotate(0,100,270)"/><path d="M 95 285v 10h 5a 5 5, 0, 0, 0, 0 -10" transform="rotate(0,100,290)"/><path d="M 105 25v 10h 10v -5a 5 5, 0, 0, 0, -5 -5" transform="rotate(-90,110,30)"/><path d="M 105 35v 10h 10v -5a 5 5, 0, 0, 0, -5 -5" transform="rotate(180,110,40)"/><path d="M 105 55v 10h 10v -5a 5 5, 0, 0, 0, -5 -5" transform="rotate(0,110,60)"/><path d="M 105 65v 10h 5a 5 5, 0, 0, 0, 0 -10" transform="rotate(90,110,70)"/><circle cx="110" cy="90" r="5" transform="rotate(0,110,90)"/><rect x="105" y="105" width="10" height="10" transform="rotate(0,110,110)"/><rect x="105" y="115" width="10" height="10" transform="rotate(0,110,120)"/><path d="M 105 125v 10h 5a 5 5, 0, 0, 0, 0 -10" transform="rotate(90,110,130)"/><rect x="105" y="185" width="10" height="10" transform="rotate(0,110,190)"/><rect x="105" y="195" width="10" height="10" transform="rotate(0,110,200)"/><path d="M 105 205v 10h 5a 5 5, 0, 0, 0, 0 -10" transform="rotate(90,110,210)"/><rect x="105" y="225" width="10" height="10" transform="rotate(0,110,230)"/><rect x="105" y="235" width="10" height="10" transform="rotate(0,110,240)"/><path d="M 105 275v 10h 5a 5 5, 0, 0, 0, 0 -10" transform="rotate(180,110,280)"/><path d="M 115 25v 10h 10v -5a 5 5, 0, 0, 0, -5 -5" transform="rotate(0,120,30)"/><path d="M 115 35v 10h 10v -5a 5 5, 0, 0, 0, -5 -5" transform="rotate(90,120,40)"/><path d="M 115 75v 10h 5a 5 5, 0, 0, 0, 0 -10" transform="rotate(180,120,80)"/><path d="M 115 95v 10h 5a 5 5, 0, 0, 0, 0 -10" transform="rotate(-90,120,100)"/><rect x="115" y="105" width="10" height="10" transform="rotate(0,120,110)"/><path d="M 115 115v 10h 10v -5a 5 5, 0, 0, 0, -5 -5" transform="rotate(90,120,120)"/><path d="M 115 145v 10h 10v -5a 5 5, 0, 0, 0, -5 -5" transform="rotate(-90,120,150)"/><path d="M 115 155v 10h 5a 5 5, 0, 0, 0, 0 -10" transform="rotate(90,120,160)"/><path d="M 115 185v 10h 10v -5a 5 5, 0, 0, 0, -5 -5" transform="rotate(0,120,190)"/><path d="M 115 195v 10h 10v -5a 5 5, 0, 0, 0, -5 -5" transform="rotate(90,120,200)"/><path d="M 115 215v 10h 5a 5 5, 0, 0, 0, 0 -10" transform="rotate(-90,120,220)"/><rect x="115" y="225" width="10" height="10" transform="rotate(0,120,230)"/><rect x="115" y="235" width="10" height="10" transform="rotate(0,120,240)"/><path d="M 115 255v 10h 10v -5a 5 5, 0, 0, 0, -5 -5" transform="rotate(-90,120,260)"/><rect x="115" y="265" width="10" height="10" transform="rotate(0,120,270)"/><path d="M 115 275v 10h 10v -5a 5 5, 0, 0, 0, -5 -5" transform="rotate(90,120,280)"/><circle cx="130" cy="20" r="5" transform="rotate(0,130,20)"/><path d="M 125 65v 10h 5a 5 5, 0, 0, 0, 0 -10" transform="rotate(-90,130,70)"/><rect x="125" y="75" width="10" height="10" transform="rotate(0,130,80)"/><path d="M 125 85v 10h 5a 5 5, 0, 0, 0, 0 -10" transform="rotate(90,130,90)"/><rect x="125" y="105" width="10" height="10" transform="rotate(0,130,110)"/><rect x="125" y="145" width="10" height="10" transform="rotate(0,130,150)"/><circle cx="130" cy="180" r="5" transform="rotate(0,130,180)"/><path d="M 125 205v 10h 5a 5 5, 0, 0, 0, 0 -10" transform="rotate(180,130,210)"/><path d="M 125 225v 10h 10v -5a 5 5, 0, 0, 0, -5 -5" transform="rotate(0,130,230)"/><rect x="125" y="235" width="10" height="10" transform="rotate(0,130,240)"/><rect x="125" y="255" width="10" height="10" transform="rotate(0,130,260)"/><path d="M 135 25v 10h 10v -5a 5 5, 0, 0, 0, -5 -5" transform="rotate(-90,140,30)"/><path d="M 135 35v 10h 10v -5a 5 5, 0, 0, 0, -5 -5" transform="rotate(180,140,40)"/><path d="M 135 105v 10h 10v -5a 5 5, 0, 0, 0, -5 -5" transform="rotate(0,140,110)"/><rect x="135" y="115" width="10" height="10" transform="rotate(0,140,120)"/><rect x="135" y="125" width="10" height="10" transform="rotate(0,140,130)"/><rect x="135" y="135" width="10" height="10" transform="rotate(0,140,140)"/><rect x="135" y="145" width="10" height="10" transform="rotate(0,140,150)"/><path d="M 135 155v 10h 5a 5 5, 0, 0, 0, 0 -10" transform="rotate(90,140,160)"/><path d="M 135 185v 10h 5a 5 5, 0, 0, 0, 0 -10" transform="rotate(-90,140,190)"/><rect x="135" y="195" width="10" height="10" transform="rotate(0,140,200)"/><rect x="135" y="205" width="10" height="10" transform="rotate(0,140,210)"/><path d="M 135 215v 10h 10v -5a 5 5, 0, 0, 0, -5 -5" transform="rotate(180,140,220)"/><path d="M 135 235v 10h 5a 5 5, 0, 0, 0, 0 -10" transform="rotate(0,140,240)"/><path d="M 135 255v 10h 5a 5 5, 0, 0, 0, 0 -10" transform="rotate(0,140,260)"/><circle cx="140" cy="280" r="5" transform="rotate(0,140,280)"/><circle cx="150" cy="10" r="5" transform="rotate(0,150,10)"/><path d="M 145 25v 10h 10v -5a 5 5, 0, 0, 0, -5 -5" transform="rotate(0,150,30)"/><rect x="145" y="35" width="10" height="10" transform="rotate(0,150,40)"/><rect x="145" y="45" width="10" height="10" transform="rotate(0,150,50)"/><rect x="145" y="55" width="10" height="10" transform="rotate(0,150,60)"/><rect x="145" y="65" width="10" height="10" transform="rotate(0,150,70)"/><rect x="145" y="75" width="10" height="10" transform="rotate(0,150,80)"/><path d="M 145 85v 10h 10v -5a 5 5, 0, 0, 0, -5 -5" transform="rotate(180,150,90)"/><path d="M 145 125v 10h 5a 5 5, 0, 0, 0, 0 -10" transform="rotate(0,150,130)"/><path d="M 145 145v 10h 5a 5 5, 0, 0, 0, 0 -10" transform="rotate(0,150,150)"/><circle cx="150" cy="170" r="5" transform="rotate(0,150,170)"/><rect x="145" y="205" width="10" height="10" transform="rotate(0,150,210)"/><rect x="145" y="215" width="10" height="10" transform="rotate(0,150,220)"/><path d="M 145 225v 10h 10v -5a 5 5, 0, 0, 0, -5 -5" transform="rotate(180,150,230)"/><circle cx="150" cy="290" r="5" transform="rotate(0,150,290)"/><path d="M 155 85v 10h 10v -5a 5 5, 0, 0, 0, -5 -5" transform="rotate(0,160,90)"/><path d="M 155 95v 10h 10v -5a 5 5, 0, 0, 0, -5 -5" transform="rotate(180,160,100)"/><path d="M 155 115v 10h 5a 5 5, 0, 0, 0, 0 -10" transform="rotate(180,160,120)"/><path d="M 155 135v 10h 5a 5 5, 0, 0, 0, 0 -10" transform="rotate(180,160,140)"/><path d="M 155 195v 10h 5a 5 5, 0, 0, 0, 0 -10" transform="rotate(-90,160,200)"/><path d="M 155 205v 10h 10v -5a 5 5, 0, 0, 0, -5 -5" transform="rotate(90,160,210)"/><path d="M 155 225v 10h 10v -5a 5 5, 0, 0, 0, -5 -5" transform="rotate(0,160,230)"/><path d="M 155 235v 10h 10v -5a 5 5, 0, 0, 0, -5 -5" transform="rotate(180,160,240)"/><path d="M 165 5v 10h 5a 5 5, 0, 0, 0, 0 -10" transform="rotate(-90,170,10)"/><rect x="165" y="15" width="10" height="10" transform="rotate(0,170,20)"/><path d="M 165 25v 10h 5a 5 5, 0, 0, 0, 0 -10" transform="rotate(90,170,30)"/><path d="M 165 45v 10h 10v -5a 5 5, 0, 0, 0, -5 -5" transform="rotate(-90,170,50)"/><rect x="165" y="55" width="10" height="10" transform="rotate(0,170,60)"/><path d="M 165 65v 10h 5a 5 5, 0, 0, 0, 0 -10" transform="rotate(90,170,70)"/><rect x="165" y="95" width="10" height="10" transform="rotate(0,170,100)"/><rect x="165" y="105" width="10" height="10" transform="rotate(0,170,110)"/><path d="M 165 115v 10h 10v -5a 5 5, 0, 0, 0, -5 -5" transform="rotate(90,170,120)"/><rect x="165" y="135" width="10" height="10" transform="rotate(0,170,140)"/><rect x="165" y="145" width="10" height="10" transform="rotate(0,170,150)"/><rect x="165" y="155" width="10" height="10" transform="rotate(0,170,160)"/><path d="M 165 165v 10h 5a 5 5, 0, 0, 0, 0 -10" transform="rotate(90,170,170)"/><path d="M 165 235v 10h 5a 5 5, 0, 0, 0, 0 -10" transform="rotate(0,170,240)"/><path d="M 165 275v 10h 10v -5a 5 5, 0, 0, 0, -5 -5" transform="rotate(-90,170,280)"/><path d="M 165 285v 10h 10v -5a 5 5, 0, 0, 0, -5 -5" transform="rotate(180,170,290)"/><rect x="175" y="45" width="10" height="10" transform="rotate(0,180,50)"/><path d="M 175 85v 10h 5a 5 5, 0, 0, 0, 0 -10" transform="rotate(-90,180,90)"/><rect x="175" y="95" width="10" height="10" transform="rotate(0,180,100)"/><rect x="175" y="135" width="10" height="10" transform="rotate(0,180,140)"/><path d="M 175 155v 10h 5a 5 5, 0, 0, 0, 0 -10" transform="rotate(0,180,160)"/><path d="M 175 205v 10h 5a 5 5, 0, 0, 0, 0 -10" transform="rotate(180,180,210)"/><circle cx="180" cy="230" r="5" transform="rotate(0,180,230)"/><path d="M 175 255v 10h 10v -5a 5 5, 0, 0, 0, -5 -5" transform="rotate(-90,180,260)"/><rect x="175" y="265" width="10" height="10" transform="rotate(0,180,270)"/><rect x="175" y="275" width="10" height="10" transform="rotate(0,180,280)"/><rect x="175" y="285" width="10" height="10" transform="rotate(0,180,290)"/><circle cx="190" cy="10" r="5" transform="rotate(0,190,10)"/><path d="M 185 25v 10h 5a 5 5, 0, 0, 0, 0 -10" transform="rotate(180,190,30)"/><rect x="185" y="45" width="10" height="10" transform="rotate(0,190,50)"/><path d="M 185 65v 10h 5a 5 5, 0, 0, 0, 0 -10" transform="rotate(-90,190,70)"/><path d="M 185 75v 10h 10v -5a 5 5, 0, 0, 0, -5 -5" transform="rotate(180,190,80)"/><path d="M 185 95v 10h 5a 5 5, 0, 0, 0, 0 -10" transform="rotate(0,190,100)"/><circle cx="190" cy="120" r="5" transform="rotate(0,190,120)"/><rect x="185" y="135" width="10" height="10" transform="rotate(0,190,140)"/><path d="M 185 145v 10h 5a 5 5, 0, 0, 0, 0 -10" transform="rotate(90,190,150)"/><path d="M 185 175v 10h 10v -5a 5 5, 0, 0, 0, -5 -5" transform="rotate(-90,190,180)"/><path d="M 185 185v 10h 5a 5 5, 0, 0, 0, 0 -10" transform="rotate(90,190,190)"/><path d="M 185 205v 10h 10v -5a 5 5, 0, 0, 0, -5 -5" transform="rotate(0,190,210)"/><path d="M 185 215v 10h 5a 5 5, 0, 0, 0, 0 -10" transform="rotate(90,190,220)"/><path d="M 185 235v 10h 5a 5 5, 0, 0, 0, 0 -10" transform="rotate(180,190,240)"/><path d="M 185 255v 10h 10v -5a 5 5, 0, 0, 0, -5 -5" transform="rotate(0,190,260)"/><rect x="185" y="265" width="10" height="10" transform="rotate(0,190,270)"/><rect x="185" y="275" width="10" height="10" transform="rotate(0,190,280)"/><path d="M 185 285v 10h 10v -5a 5 5, 0, 0, 0, -5 -5" transform="rotate(90,190,290)"/><rect x="195" y="25" width="10" height="10" transform="rotate(0,200,30)"/><path d="M 195 45v 10h 5a 5 5, 0, 0, 0, 0 -10" transform="rotate(0,200,50)"/><rect x="195" y="75" width="10" height="10" transform="rotate(0,200,80)"/><path d="M 195 85v 10h 10v -5a 5 5, 0, 0, 0, -5 -5" transform="rotate(180,200,90)"/><path d="M 195 135v 10h 5a 5 5, 0, 0, 0, 0 -10" transform="rotate(0,200,140)"/><path d="M 195 155v 10h 5a 5 5, 0, 0, 0, 0 -10" transform="rotate(-90,200,160)"/><rect x="195" y="165" width="10" height="10" transform="rotate(0,200,170)"/><path d="M 195 175v 10h 10v -5a 5 5, 0, 0, 0, -5 -5" transform="rotate(90,200,180)"/><rect x="195" y="235" width="10" height="10" transform="rotate(0,200,240)"/><path d="M 195 275v 10h 5a 5 5, 0, 0, 0, 0 -10" transform="rotate(0,200,280)"/><circle cx="210" cy="10" r="5" transform="rotate(0,210,10)"/><path d="M 205 25v 10h 5a 5 5, 0, 0, 0, 0 -10" transform="rotate(0,210,30)"/><path d="M 205 65v 10h 5a 5 5, 0, 0, 0, 0 -10" transform="rotate(-90,210,70)"/><rect x="205" y="75" width="10" height="10" transform="rotate(0,210,80)"/><rect x="205" y="85" width="10" height="10" transform="rotate(0,210,90)"/><path d="M 205 115v 10h 10v -5a 5 5, 0, 0, 0, -5 -5" transform="rotate(-90,210,120)"/><path d="M 205 125v 10h 5a 5 5, 0, 0, 0, 0 -10" transform="rotate(90,210,130)"/><circle cx="210" cy="150" r="5" transform="rotate(0,210,150)"/><rect x="205" y="165" width="10" height="10" transform="rotate(0,210,170)"/><path d="M 205 185v 10h 5a 5 5, 0, 0, 0, 0 -10" transform="rotate(-90,210,190)"/><rect x="205" y="195" width="10" height="10" transform="rotate(0,210,200)"/><rect x="205" y="205" width="10" height="10" transform="rotate(0,210,210)"/><rect x="205" y="215" width="10" height="10" transform="rotate(0,210,220)"/><rect x="205" y="225" width="10" height="10" transform="rotate(0,210,230)"/><rect x="205" y="235" width="10" height="10" transform="rotate(0,210,240)"/><rect x="205" y="245" width="10" height="10" transform="rotate(0,210,250)"/><rect x="205" y="255" width="10" height="10" transform="rotate(0,210,260)"/><path d="M 205 265v 10h 5a 5 5, 0, 0, 0, 0 -10" transform="rotate(90,210,270)"/><rect x="215" y="85" width="10" height="10" transform="rotate(0,220,90)"/><path d="M 215 105v 10h 10v -5a 5 5, 0, 0, 0, -5 -5" transform="rotate(-90,220,110)"/><path d="M 215 115v 10h 10v -5a 5 5, 0, 0, 0, -5 -5" transform="rotate(90,220,120)"/><rect x="215" y="165" width="10" height="10" transform="rotate(0,220,170)"/><path d="M 215 175v 10h 5a 5 5, 0, 0, 0, 0 -10" transform="rotate(90,220,180)"/><path d="M 215 195v 10h 10v -5a 5 5, 0, 0, 0, -5 -5" transform="rotate(0,220,200)"/><rect x="215" y="205" width="10" height="10" transform="rotate(0,220,210)"/><rect x="215" y="245" width="10" height="10" transform="rotate(0,220,250)"/><path d="M 215 275v 10h 10v -5a 5 5, 0, 0, 0, -5 -5" transform="rotate(-90,220,280)"/><path d="M 215 285v 10h 5a 5 5, 0, 0, 0, 0 -10" transform="rotate(90,220,290)"/><rect x="225" y="85" width="10" height="10" transform="rotate(0,230,90)"/><path d="M 225 105v 10h 5a 5 5, 0, 0, 0, 0 -10" transform="rotate(0,230,110)"/><path d="M 225 135v 10h 10v -5a 5 5, 0, 0, 0, -5 -5" transform="rotate(-90,230,140)"/><path d="M 225 145v 10h 5a 5 5, 0, 0, 0, 0 -10" transform="rotate(90,230,150)"/><path d="M 225 165v 10h 5a 5 5, 0, 0, 0, 0 -10" transform="rotate(0,230,170)"/><path d="M 225 185v 10h 5a 5 5, 0, 0, 0, 0 -10" transform="rotate(180,230,190)"/><rect x="225" y="205" width="10" height="10" transform="rotate(0,230,210)"/><circle cx="230" cy="230" r="5" transform="rotate(0,230,230)"/><rect x="225" y="245" width="10" height="10" transform="rotate(0,230,250)"/><rect x="225" y="255" width="10" height="10" transform="rotate(0,230,260)"/><rect x="225" y="265" width="10" height="10" transform="rotate(0,230,270)"/><path d="M 225 275v 10h 10v -5a 5 5, 0, 0, 0, -5 -5" transform="rotate(90,230,280)"/><path d="M 235 85v 10h 10v -5a 5 5, 0, 0, 0, -5 -5" transform="rotate(0,240,90)"/><path d="M 235 95v 10h 10v -5a 5 5, 0, 0, 0, -5 -5" transform="rotate(180,240,100)"/><path d="M 235 125v 10h 10v -5a 5 5, 0, 0, 0, -5 -5" transform="rotate(-90,240,130)"/><path d="M 235 135v 10h 10v -5a 5 5, 0, 0, 0, -5 -5" transform="rotate(90,240,140)"/><rect x="235" y="185" width="10" height="10" transform="rotate(0,240,190)"/><rect x="235" y="205" width="10" height="10" transform="rotate(0,240,210)"/><rect x="235" y="245" width="10" height="10" transform="rotate(0,240,250)"/><path d="M 235 265v 10h 5a 5 5, 0, 0, 0, 0 -10" transform="rotate(0,240,270)"/><circle cx="240" cy="290" r="5" transform="rotate(0,240,290)"/><rect x="245" y="95" width="10" height="10" transform="rotate(0,250,100)"/><path d="M 245 115v 10h 10v -5a 5 5, 0, 0, 0, -5 -5" transform="rotate(-90,250,120)"/><rect x="245" y="125" width="10" height="10" transform="rotate(0,250,130)"/><circle cx="250" cy="150" r="5" transform="rotate(0,250,150)"/><circle cx="250" cy="170" r="5" transform="rotate(0,250,170)"/><rect x="245" y="185" width="10" height="10" transform="rotate(0,250,190)"/><rect x="245" y="205" width="10" height="10" transform="rotate(0,250,210)"/><rect x="245" y="215" width="10" height="10" transform="rotate(0,250,220)"/><rect x="245" y="225" width="10" height="10" transform="rotate(0,250,230)"/><rect x="245" y="235" width="10" height="10" transform="rotate(0,250,240)"/><rect x="245" y="245" width="10" height="10" transform="rotate(0,250,250)"/><path d="M 245 255v 10h 10v -5a 5 5, 0, 0, 0, -5 -5" transform="rotate(180,250,260)"/><circle cx="250" cy="280" r="5" transform="rotate(0,250,280)"/><path d="M 255 85v 10h 5a 5 5, 0, 0, 0, 0 -10" transform="rotate(-90,260,90)"/><rect x="255" y="95" width="10" height="10" transform="rotate(0,260,100)"/><rect x="255" y="105" width="10" height="10" transform="rotate(0,260,110)"/><rect x="255" y="115" width="10" height="10" transform="rotate(0,260,120)"/><path d="M 255 125v 10h 10v -5a 5 5, 0, 0, 0, -5 -5" transform="rotate(90,260,130)"/><path d="M 255 155v 10h 5a 5 5, 0, 0, 0, 0 -10" transform="rotate(180,260,160)"/><path d="M 255 185v 10h 10v -5a 5 5, 0, 0, 0, -5 -5" transform="rotate(0,260,190)"/><rect x="255" y="195" width="10" height="10" transform="rotate(0,260,200)"/><rect x="255" y="205" width="10" height="10" transform="rotate(0,260,210)"/><rect x="255" y="215" width="10" height="10" transform="rotate(0,260,220)"/><path d="M 255 225v 10h 10v -5a 5 5, 0, 0, 0, -5 -5" transform="rotate(90,260,230)"/><rect x="255" y="245" width="10" height="10" transform="rotate(0,260,250)"/><path d="M 255 255v 10h 10v -5a 5 5, 0, 0, 0, -5 -5" transform="rotate(90,260,260)"/><path d="M 255 285v 10h 5a 5 5, 0, 0, 0, 0 -10" transform="rotate(180,260,290)"/><rect x="265" y="95" width="10" height="10" transform="rotate(0,270,100)"/><rect x="265" y="105" width="10" height="10" transform="rotate(0,270,110)"/><path d="M 265 115v 10h 10v -5a 5 5, 0, 0, 0, -5 -5" transform="rotate(90,270,120)"/><path d="M 265 135v 10h 10v -5a 5 5, 0, 0, 0, -5 -5" transform="rotate(-90,270,140)"/><rect x="265" y="145" width="10" height="10" transform="rotate(0,270,150)"/><rect x="265" y="155" width="10" height="10" transform="rotate(0,270,160)"/><path d="M 265 165v 10h 10v -5a 5 5, 0, 0, 0, -5 -5" transform="rotate(180,270,170)"/><path d="M 265 195v 10h 10v -5a 5 5, 0, 0, 0, -5 -5" transform="rotate(0,270,200)"/><rect x="265" y="205" width="10" height="10" transform="rotate(0,270,210)"/><path d="M 265 245v 10h 5a 5 5, 0, 0, 0, 0 -10" transform="rotate(0,270,250)"/><path d="M 265 285v 10h 5a 5 5, 0, 0, 0, 0 -10" transform="rotate(0,270,290)"/><path d="M 275 85v 10h 5a 5 5, 0, 0, 0, 0 -10" transform="rotate(-90,280,90)"/><rect x="275" y="95" width="10" height="10" transform="rotate(0,280,100)"/><rect x="275" y="105" width="10" height="10" transform="rotate(0,280,110)"/><path d="M 275 125v 10h 5a 5 5, 0, 0, 0, 0 -10" transform="rotate(-90,280,130)"/><rect x="275" y="135" width="10" height="10" transform="rotate(0,280,140)"/><path d="M 275 145v 10h 10v -5a 5 5, 0, 0, 0, -5 -5" transform="rotate(90,280,150)"/><path d="M 275 165v 10h 10v -5a 5 5, 0, 0, 0, -5 -5" transform="rotate(0,280,170)"/><path d="M 275 175v 10h 10v -5a 5 5, 0, 0, 0, -5 -5" transform="rotate(180,280,180)"/><rect x="275" y="205" width="10" height="10" transform="rotate(0,280,210)"/><circle cx="280" cy="240" r="5" transform="rotate(0,280,240)"/><circle cx="280" cy="260" r="5" transform="rotate(0,280,260)"/><path d="M 275 275v 10h 5a 5 5, 0, 0, 0, 0 -10" transform="rotate(180,280,280)"/><path d="M 285 95v 10h 10v -5a 5 5, 0, 0, 0, -5 -5" transform="rotate(0,290,100)"/><rect x="285" y="105" width="10" height="10" transform="rotate(0,290,110)"/><path d="M 285 115v 10h 5a 5 5, 0, 0, 0, 0 -10" transform="rotate(90,290,120)"/><path d="M 285 135v 10h 5a 5 5, 0, 0, 0, 0 -10" transform="rotate(0,290,140)"/><circle cx="290" cy="160" r="5" transform="rotate(0,290,160)"/><path d="M 285 175v 10h 5a 5 5, 0, 0, 0, 0 -10" transform="rotate(0,290,180)"/><path d="M 285 195v 10h 5a 5 5, 0, 0, 0, 0 -10" transform="rotate(-90,290,200)"/><path d="M 285 205v 10h 10v -5a 5 5, 0, 0, 0, -5 -5" transform="rotate(90,290,210)"/><circle cx="290" cy="250" r="5" transform="rotate(0,290,250)"/><path d="M 285 275v 10h 5a 5 5, 0, 0, 0, 0 -10" transform="rotate(0,290,280)"/><path clip-rule="evenodd" d="M 40 5a 35 35 0 1 0 0.1 0zm 0 10a 25 25 0 1 1 -0.1 0Z" transform="rotate(0,40,40)"/><rect x="25" y="25" width="30" height="30" transform="rotate(0,40,40)"/><path clip-rule="evenodd" d="M 260 5a 35 35 0 1 0 0.1 0zm 0 10a 25 25 0 1 1 -0.1 0Z" transform="rotate(90,260,40)"/><rect x="245" y="25" width="30" height="30" transform="rotate(90,260,40)"/><path clip-rule="evenodd" d="M 40 225a 35 35 0 1 0 0.1 0zm 0 10a 25 25 0 1 1 -0.1 0Z" transform="rotate(-90,40,260)"/><rect x="25" y="245" width="30" height="30" transform="rotate(-90,40,260)"/></clipPath></defs><rect x="0" y="0" height="300" width="300" clip-path="url('#clip-path-background-color')" fill="transparent" style="transform: translate(65.5px, 39px) scale(0.57);"/><rect x="0" y="0" height="300" width="300" clip-path="url('#clip-path-dot-color')" fill="#02e657" style="transform: translate(65.5px, 39px) scale(0.57);"/></svg><svg class="border-thirteen" data-name="Layer 1" xmlns="http://www.w3.org/2000/svg" width="300" height="300" viewBox="0 0 300 300">
			<g style="fill: rgb(2, 230, 87);">
				<path d="M195.11,290.77l-7.28,4.88a2.16,2.16,0,0,0-.57,3,2.21,2.21,0,0,0,1.77.92,2.4,2.4,0,0,0,1.2-.35l7.28-4.88a2.14,2.14,0,0,0-2.4-3.54Z"/>
				<path d="M266.85,227.52l-7.28,4.87a2.16,2.16,0,0,0-.57,3,2.21,2.21,0,0,0,1.77.92,1.86,1.86,0,0,0,1.2-.35l7.28-4.88a2.13,2.13,0,1,0-2.4-3.53Z"/>
				<path d="M41,176.34l-9.11,6.08a2.15,2.15,0,0,0-.57,3,2.19,2.19,0,0,0,1.77.92,2.14,2.14,0,0,0,1.2-.35l9.12-6.08A2.14,2.14,0,0,0,41,176.34Z"/>
				<path d="M41,269.08l-9.11,6.07a2.15,2.15,0,0,0-.57,3,2.19,2.19,0,0,0,1.77.92,2.92,2.92,0,0,0,1.2-.35l9.12-6.08A2.14,2.14,0,0,0,41,269.08Z"/>
				<path d="M131.16,237.61c-.31,1.21-.62,2.31-1,3.31l-2.5,6.69h7l-2.48-6.69Z"/>
				<path d="M147,10.1a2.4,2.4,0,0,0,1.14-.35l7.7-5.16a2.13,2.13,0,0,0-2.4-3.53l-7.64,5.15a2.15,2.15,0,0,0-.56,3A2.19,2.19,0,0,0,147,10.1Z"/>
				<path d="M275.54,54.77a2.14,2.14,0,0,0-3-.56l-17.1,11.45V31.31a10.18,10.18,0,0,0-10.18-10.18H137.22l-10.39,7a2.4,2.4,0,0,1-1.2.35,2.21,2.21,0,0,1-1.77-.92,2.15,2.15,0,0,1,.57-3l1.41-.92,13.64-8.76a2.1,2.1,0,1,0-2.26-3.54L122,21.2h-8.13l-10.39,7a2.37,2.37,0,0,1-1.2.35,2.19,2.19,0,0,1-1.76-.92,2.15,2.15,0,0,1,.56-3L124,9.25a2.13,2.13,0,1,0-2.4-3.53l-23,15.48H58.2A10.18,10.18,0,0,0,48,31.38v28L31.34,70.46a2.09,2.09,0,0,0-.57,3,2,2,0,0,0,1.77.92,2.58,2.58,0,0,0,1.2-.35l14.35-9.54,3.18-2.12a2.14,2.14,0,1,1,2.41,3.53l-5.52,3.67V76.9l-7,4.66a2.15,2.15,0,0,0-.56,3,2,2,0,0,0,1.77.92,2.34,2.34,0,0,0,1.2-.36l7.35-4.94A2.13,2.13,0,0,1,52.69,84l-4.46,3v65.66L25.05,168.07a2.15,2.15,0,0,0-.57,3,2,2,0,0,0,1.77.92,2.37,2.37,0,0,0,1.2-.35l25-16.75a2,2,0,0,1,2.62.77,2.16,2.16,0,0,1-.57,3l-6.36,4.24V275a10.09,10.09,0,0,0,9.83,10.11l-5.87,4a2.15,2.15,0,0,0-.57,3,2.06,2.06,0,0,0,1.77.92,2.38,2.38,0,0,0,1.2-.36l23-15.41a2.14,2.14,0,0,1,2.41,3.54l-6.58,4.45h52l-5.58,3.75a2.14,2.14,0,0,0-.56,3,2,2,0,0,0,1.76.91,2.37,2.37,0,0,0,1.2-.35l30.54-20.28a2.15,2.15,0,0,1,3,.56,2.1,2.1,0,0,1-.57,3l-14.21,9.54H217l-4.6,3a2.16,2.16,0,0,0-.63,3,2.11,2.11,0,0,0,1.76,1,2,2,0,0,0,1.13-.36L237,277.35a2.14,2.14,0,1,1,2.33,3.6l-6.78,4.38h13a10.18,10.18,0,0,0,10.18-10.18v-91.1l-4.38,3a2.43,2.43,0,0,1-1.2.35,2.19,2.19,0,0,1-1.77-.92,2.15,2.15,0,0,1,.57-3l24.38-16.33a2.13,2.13,0,1,0-2.4-3.53l-15.48,10.25V91.53l-4.38,3a2.34,2.34,0,0,1-1.21.36,2.22,2.22,0,0,1-1.76-.92,2.15,2.15,0,0,1,.56-3l6.72-4.52,13.71-9.19a2.14,2.14,0,0,0-2.4-3.54l-11.24,7.57V75.84l-4.38,3a2.34,2.34,0,0,1-1.21.36,2.22,2.22,0,0,1-1.76-.92,2.15,2.15,0,0,1,.56-3l6.72-4.52,19.43-13.08A2.05,2.05,0,0,0,275.54,54.77ZM98.23,255.56a9.06,9.06,0,0,1-5.8,1.66,14.28,14.28,0,0,1-6.07-1v-2.66a16,16,0,0,0,3.07.95,15.6,15.6,0,0,0,3.12.35,6.14,6.14,0,0,0,3.73-.95,3.11,3.11,0,0,0,1.26-2.62,3.24,3.24,0,0,0-.46-1.81,4.29,4.29,0,0,0-1.51-1.33,22.25,22.25,0,0,0-3.23-1.41A10.49,10.49,0,0,1,88,244.07a5.76,5.76,0,0,1-1.32-3.92,5,5,0,0,1,2-4.11,8,8,0,0,1,5.11-1.53,14.87,14.87,0,0,1,6.09,1.24l-.86,2.39A13.83,13.83,0,0,0,93.64,237a4.91,4.91,0,0,0-3.07.85,2.78,2.78,0,0,0-1.12,2.37,3.43,3.43,0,0,0,.44,1.8,3.93,3.93,0,0,0,1.39,1.31,17.6,17.6,0,0,0,3,1.34A16.55,16.55,0,0,1,98,246.4a5.39,5.39,0,0,1,1.78,2,5.6,5.6,0,0,1,.58,2.65A5.52,5.52,0,0,1,98.23,255.56Zm10.34-3.09a7,7,0,0,0,5.63,2.32,18.7,18.7,0,0,0,5.31-.88v2.42a13.38,13.38,0,0,1-2.71.7,20.31,20.31,0,0,1-3,.19q-4.87,0-7.52-3t-2.63-8.41a13.43,13.43,0,0,1,1.26-6,9.08,9.08,0,0,1,3.67-4,11.24,11.24,0,0,1,5.67-1.39,13.61,13.61,0,0,1,6.11,1.3l-1.12,2.36a12,12,0,0,0-5-1.21,7,7,0,0,0-5.6,2.39,9.7,9.7,0,0,0-2,6.52A9.89,9.89,0,0,0,108.57,252.47Zm29.61,4.45-2.66-6.85h-8.76l-2.63,6.85h-2.81L130,234.74h2.5l8.62,22.18Zm23.43,0h-3.24l-11.83-18.34h-.12l.07,1.22q.18,2.74.18,4.77v12.35H144.1V234.83h3.22l.68,1.07,7.25,11.21,3.86,6h.12c0-.24-.06-1.1-.12-2.59S159,248,159,247.29V234.83h2.59Zm36.1,0H195V243.34c0-1.52.07-3.43.21-5.76h-.12l-7.37,19.34H185.4l-7.29-19.37H178q.22,2.41.23,6v13.4h-2.57V234.83h4.11l6.81,18.1h.12l6.94-18.1h4.08Zm18.36-19.64H206.5v6.89h9v2.41h-9v7.89h9.57v2.45H203.72V234.83h12.35Zm21-21.21h-172a5.23,5.23,0,0,1-5.23-5.24V38.94a5.22,5.22,0,0,1,5.23-5.23H237a5.22,5.22,0,0,1,5.23,5.23V210.83h.07A5.22,5.22,0,0,1,237,216.07Z"/>
				<path d="M270.45,139.8l-7.28,4.88a2.15,2.15,0,0,0-.56,3,2.22,2.22,0,0,0,1.76.92,2.44,2.44,0,0,0,1.21-.36l7.28-4.87a2.14,2.14,0,0,0-2.41-3.54Z"/>
			</g>
		</svg></svg>